<?xml version="1.0" encoding="UTF-8"?>
<svg xmlns="http://www.w3.org/2000/svg" xmlns:xlink="http://www.w3.org/1999/xlink" width="595.5pt" height="842.249979pt" viewBox="0 0 595.5 842.249979" version="1.2">
<g id="surface1">
<path style=" stroke:none;fill-rule:nonzero;fill:rgb(90.979004%,23.919678%,46.269226%);fill-opacity:1;" d="M 461.128906 478.527344 C 457.785156 476.976562 454.144531 477.015625 451.003906 478.363281 C 449.195312 479.128906 447.183594 479.21875 445.429688 478.308594 C 438.789062 474.875 430.457031 469.59375 423.101562 464.390625 L 423.101562 464.351562 L 415.949219 482.105469 C 424.359375 484.320312 433.328125 487.117188 439.996094 489.84375 C 441.867188 490.613281 443.148438 492.230469 443.800781 494.152344 C 444.75 496.972656 446.710938 499.433594 449.441406 501.007812 C 455.683594 504.609375 464.269531 501.917969 467.320312 495.394531 C 470.28125 489.023438 467.484375 481.488281 461.128906 478.527344 "/>
<path style=" stroke:none;fill-rule:nonzero;fill:rgb(90.979004%,23.919678%,46.269226%);fill-opacity:1;" d="M 409.082031 271.292969 C 401.609375 266.140625 390.585938 268.667969 386.085938 276.574219 C 383.984375 280.265625 383.523438 284.46875 384.523438 288.351562 C 385.035156 290.3125 384.675781 292.390625 383.445312 294.019531 C 378.308594 300.851562 370.796875 309.179688 363.351562 316.769531 L 382.472656 329.40625 C 386.921875 319.960938 391.996094 310.28125 396.519531 303.207031 C 397.660156 301.425781 399.582031 300.402344 401.683594 300.195312 C 406.121094 299.761719 410.324219 297.503906 413.09375 293.542969 C 418.101562 286.289062 416.335938 276.34375 409.082031 271.292969 "/>
<path style=" stroke:none;fill-rule:nonzero;fill:rgb(90.979004%,23.919678%,46.269226%);fill-opacity:1;" d="M 191.3125 319.753906 C 189.695312 318.535156 188.890625 316.652344 188.761719 314.652344 C 188.554688 311.679688 187.300781 308.785156 185.058594 306.566406 C 179.96875 301.453125 170.945312 301.875 166.320312 307.425781 C 161.859375 312.832031 162.574219 320.84375 167.996094 325.304688 C 170.804688 327.636719 174.316406 328.519531 177.660156 328.058594 C 179.671875 327.777344 181.710938 328.25 183.222656 329.625 C 189.671875 335.492188 197.644531 344.296875 203.949219 352.078125 L 217.894531 336.328125 C 208.921875 331.507812 198.410156 325.113281 191.3125 319.753906 "/>
<path style=" stroke:none;fill-rule:nonzero;fill:rgb(100%,34.118652%,52.938843%);fill-opacity:1;" d="M 303.304688 297.773438 C 233.246094 297.773438 176.457031 354.566406 176.457031 424.621094 C 176.457031 494.675781 233.246094 551.46875 303.304688 551.46875 C 373.359375 551.46875 430.152344 494.675781 430.152344 424.621094 C 430.152344 354.566406 373.359375 297.773438 303.304688 297.773438 "/>
<path style=" stroke:none;fill-rule:nonzero;fill:rgb(90.979004%,23.919678%,46.269226%);fill-opacity:1;" d="M 390.84375 564.515625 C 388.136719 558.941406 383.175781 555.289062 377.578125 554.058594 C 375.527344 553.609375 373.808594 552.25 372.960938 550.328125 C 368.128906 539.433594 363.03125 523.875 359.121094 509.621094 C 356.597656 500.417969 346.367188 495.765625 337.769531 499.90625 C 329.179688 504.058594 326.464844 514.964844 332.101562 522.667969 C 340.84375 534.613281 349.855469 548.316406 355.378906 558.875 C 356.339844 560.707031 356.363281 562.847656 355.492188 564.707031 C 352.558594 570.910156 352.941406 578.589844 357.609375 584.882812 C 362.144531 591.019531 370.195312 593.929688 377.617188 592.121094 C 390.238281 589.046875 396.160156 575.539062 390.84375 564.515625 "/>
<path style=" stroke:none;fill-rule:nonzero;fill:rgb(90.979004%,23.919678%,46.269226%);fill-opacity:1;" d="M 298.714844 310.28125 C 294.203125 298.890625 289.847656 286.046875 287.550781 276.304688 C 287.066406 274.269531 287.628906 272.191406 288.949219 270.578125 C 292.320312 266.4375 293.640625 260.746094 291.742188 255.042969 C 290.140625 250.199219 286.15625 246.390625 281.324219 244.765625 C 267.789062 240.175781 256.84375 253.453125 260.238281 265.027344 C 261.484375 269.242188 264.289062 272.652344 267.902344 274.691406 C 269.699219 275.714844 270.980469 277.40625 271.3125 279.445312 C 272.875 289.339844 273.710938 302.886719 273.863281 315.164062 C 273.964844 323.226562 281.324219 329.214844 289.230469 327.664062 C 297.125 326.097656 301.675781 317.769531 298.714844 310.28125 "/>
<path style=" stroke:none;fill-rule:nonzero;fill:rgb(90.979004%,23.919678%,46.269226%);fill-opacity:1;" d="M 455.988281 370.664062 C 452.582031 371.867188 449.902344 374.300781 448.3125 377.3125 C 447.390625 379.058594 445.890625 380.390625 443.96875 380.800781 C 435.664062 382.554688 424.34375 383.875 414.054688 384.582031 C 407.261719 385.03125 402.582031 391.59375 404.261719 398.179688 C 405.941406 404.78125 413.195312 408.292969 419.371094 405.433594 C 428.664062 401.152344 439.160156 396.910156 447.273438 394.476562 C 449.246094 393.886719 451.3125 394.375 453.027344 395.527344 C 456.859375 398.117188 461.921875 398.796875 466.742188 396.566406 C 470.164062 394.976562 472.765625 391.898438 473.945312 388.3125 C 477.894531 376.261719 465.832031 367.164062 455.988281 370.664062 "/>
<path style=" stroke:none;fill-rule:nonzero;fill:rgb(90.979004%,23.919678%,46.269226%);fill-opacity:1;" d="M 186.671875 406.085938 C 175.074219 408.601562 162.128906 410.765625 152.449219 411.445312 C 150.386719 411.585938 148.464844 410.703125 147.054688 409.191406 C 143.375 405.214844 137.6875 403.164062 131.648438 404.511719 C 125.546875 405.882812 120.703125 410.933594 119.589844 417.085938 C 117.691406 427.554688 125.84375 436.464844 135.851562 436.144531 C 140.710938 435.988281 144.914062 433.695312 147.707031 430.183594 C 149.027344 428.53125 150.925781 427.464844 153.054688 427.480469 C 162.742188 427.542969 175.765625 428.863281 187.464844 430.632812 C 195.183594 431.796875 202.066406 425.699219 201.820312 417.878906 C 201.566406 410.074219 194.296875 404.421875 186.671875 406.085938 "/>
<path style=" stroke:none;fill-rule:nonzero;fill:rgb(90.979004%,23.919678%,46.269226%);fill-opacity:1;" d="M 199.195312 489.792969 C 193.3125 497.394531 186.429688 505.46875 180.726562 511.058594 C 179.277344 512.464844 177.277344 513.03125 175.265625 512.800781 C 170.933594 512.324219 166.421875 513.980469 163.359375 517.941406 C 161.179688 520.757812 160.347656 524.488281 160.921875 528 C 162.882812 539.832031 176.957031 542.1875 183.683594 534.960938 C 185.953125 532.511719 187.144531 529.398438 187.222656 526.257812 C 187.261719 524.21875 188.015625 522.285156 189.59375 521.003906 C 195.769531 515.941406 204.5625 509.980469 212.765625 504.96875 C 218.265625 501.609375 219.328125 494.074219 215.035156 489.28125 C 210.742188 484.488281 203.128906 484.71875 199.195312 489.792969 "/>
<path style=" stroke:none;fill-rule:nonzero;fill:rgb(90.979004%,23.919678%,46.269226%);fill-opacity:1;" d="M 262.214844 568.976562 C 264.726562 562.617188 268.457031 554.929688 272.492188 547.367188 L 252.714844 540.34375 C 251.101562 548.828125 249.152344 557.160156 247.128906 563.722656 C 246.511719 565.695312 244.976562 567.167969 243.050781 567.9375 C 237.976562 569.949219 233.992188 574.550781 233.15625 580.714844 C 232.3125 586.867188 235.296875 593.136719 240.605469 596.351562 C 249.589844 601.773438 260.714844 597.429688 264.035156 588.046875 C 265.621094 583.511719 265.019531 578.769531 262.789062 574.910156 C 261.726562 573.078125 261.429688 570.9375 262.214844 568.976562 "/>
<path style=" stroke:none;fill-rule:nonzero;fill:rgb(90.979004%,23.919678%,46.269226%);fill-opacity:1;" d="M 381.5 441.921875 C 386.792969 441.921875 391.074219 446.203125 391.074219 451.484375 C 391.074219 456.777344 386.792969 461.058594 381.5 461.058594 C 376.21875 461.058594 371.9375 456.777344 371.9375 451.484375 C 371.9375 446.203125 376.21875 441.921875 381.5 441.921875 "/>
<path style=" stroke:none;fill-rule:nonzero;fill:rgb(90.979004%,23.919678%,46.269226%);fill-opacity:1;" d="M 290.882812 474.785156 C 298.5625 474.785156 304.804688 481.015625 304.804688 488.703125 C 304.804688 496.382812 298.5625 502.625 290.882812 502.625 C 283.195312 502.625 276.964844 496.382812 276.964844 488.703125 C 276.964844 481.015625 283.195312 474.785156 290.882812 474.785156 "/>
<path style=" stroke:none;fill-rule:nonzero;fill:rgb(90.979004%,23.919678%,46.269226%);fill-opacity:1;" d="M 349.765625 335.597656 C 355.519531 335.597656 360.171875 340.261719 360.171875 346.015625 C 360.171875 351.757812 355.519531 356.421875 349.765625 356.421875 C 344.011719 356.421875 339.355469 351.757812 339.355469 346.015625 C 339.355469 340.261719 344.011719 335.597656 349.765625 335.597656 "/>
<path style=" stroke:none;fill-rule:nonzero;fill:rgb(90.979004%,23.919678%,46.269226%);fill-opacity:1;" d="M 237.632812 433.398438 C 242.769531 433.398438 246.9375 437.566406 246.9375 442.707031 C 246.9375 447.84375 242.769531 452.011719 237.632812 452.011719 C 232.492188 452.011719 228.324219 447.84375 228.324219 442.707031 C 228.324219 437.566406 232.492188 433.398438 237.632812 433.398438 "/>
<path style=" stroke:none;fill-rule:nonzero;fill:rgb(90.979004%,23.919678%,46.269226%);fill-opacity:1;" d="M 248.039062 361.332031 C 253.78125 361.332031 258.445312 365.984375 258.445312 371.738281 C 258.445312 377.480469 253.78125 382.144531 248.039062 382.144531 C 242.285156 382.144531 237.632812 377.480469 237.632812 371.738281 C 237.632812 365.984375 242.285156 361.332031 248.039062 361.332031 "/>
<path style=" stroke:none;fill-rule:nonzero;fill:rgb(90.979004%,23.919678%,46.269226%);fill-opacity:1;" d="M 322.234375 393.808594 C 331.859375 393.808594 339.652344 401.613281 339.652344 411.238281 C 339.652344 420.867188 331.859375 428.671875 322.234375 428.671875 C 312.609375 428.671875 304.804688 420.867188 304.804688 411.238281 C 304.804688 401.613281 312.609375 393.808594 322.234375 393.808594 "/>
</g>
</svg>
